<svg viewBox="0 0 600 400" xmlns="http://www.w3.org/2000/svg">
  <!-- Timeline -->
  <line x1="100" y1="50" x2="100" y2="350" stroke="#333" stroke-width="2"/>
  <line x1="500" y1="50" x2="500" y2="350" stroke="#333" stroke-width="2"/>
  
  <!-- Labels -->
  <text x="100" y="30" text-anchor="middle" font-family="Arial">Sender</text>
  <text x="500" y="30" text-anchor="middle" font-family="Arial">Receiver</text>
  
  <!-- Packets 1-2 successful -->
  <line x1="100" y1="80" x2="500" y2="120" stroke="#82ca9d" stroke-width="2" marker-end="url(#arrow)"/>
  <text x="80" y="80" text-anchor="end" font-family="Arial">1</text>
  
  <line x1="100" y1="120" x2="500" y2="160" stroke="#82ca9d" stroke-width="2" marker-end="url(#arrow)"/>
  <text x="80" y="120" text-anchor="end" font-family="Arial">2</text>
  
  <!-- Packet 3 lost -->
  <line x1="100" y1="160" x2="300" y2="200" stroke="#ff7f7f" stroke-width="2" stroke-dasharray="5,5"/>
  <text x="80" y="160" text-anchor="end" font-family="Arial">3</text>
  
  <!-- Packet 4 sent but ignored -->
  <line x1="100" y1="200" x2="500" y2="240" stroke="#ddd" stroke-width="2" marker-end="url(#arrow)"/>
  <text x="80" y="200" text-anchor="end" font-family="Arial">4</text>
  
  <!-- NACK for 3 -->
  <line x1="500" y1="260" x2="100" y2="280" stroke="#ffd700" stroke-width="2" marker-end="url(#arrow)"/>
  <text x="520" y="260" font-family="Arial">NACK 3</text>
  
  <!-- Retransmission of 3 and 4 -->
  <line x1="100" y1="300" x2="500" y2="320" stroke="#4a90e2" stroke-width="2" marker-end="url(#arrow)"/>
  <text x="80" y="300" text-anchor="end" font-family="Arial">3</text>
  
  <line x1="100" y1="340" x2="500" y2="360" stroke="#4a90e2" stroke-width="2" marker-end="url(#arrow)"/>
  <text x="80" y="340" text-anchor="end" font-family="Arial">4</text>

  <!-- Arrow marker -->
  <defs>
    <marker id="arrow" markerWidth="10" markerHeight="10" refX="9" refY="3" orient="auto">
      <path d="M0,0 L0,6 L9,3 z" fill="#333"/>
    </marker>
  </defs>
  
  <!-- Legend -->
  <rect x="550" y="80" width="20" height="10" fill="#82ca9d"/>
  <text x="575" y="90" font-family="Arial" font-size="12">Success</text>
  
  <rect x="550" y="100" width="20" height="10" fill="#ff7f7f"/>
  <text x="575" y="110" font-family="Arial" font-size="12">Lost</text>
  
  <rect x="550" y="120" width="20" height="10" fill="#4a90e2"/>
  <text x="575" y="130" font-family="Arial" font-size="12">Retransmit</text>
</svg>
